<?xml version="1.0" encoding="utf-8"?>
<!-- Generator: Adobe Illustrator 18.1.1, SVG Export Plug-In . SVG Version: 6.00 Build 0)  -->
<svg version="1.1" id="Layer_1" xmlns="http://www.w3.org/2000/svg" xmlns:xlink="http://www.w3.org/1999/xlink" x="0px" y="0px"
	 viewBox="0 0 690.7 550.3" enable-background="new 0 0 690.7 550.3" xml:space="preserve">
<g>
	<g id="line36">
		<linearGradient id="SVGID_1_" gradientUnits="userSpaceOnUse" x1="77.9433" y1="365.47" x2="77.9433" y2="209.6988">
			<stop  offset="0" style="stop-color:#B2D235"/>
			<stop  offset="0.752" style="stop-color:#00AEEF"/>
			<stop  offset="1" style="stop-color:#1B759A"/>
		</linearGradient>
		<path fill="none" stroke="url(#SVGID_1_)" d="M132.8,326.6c1-39.1-133.4-128.7-101.3-115c113.6,48.6,13.2,37.7,12.2,76.9
			c-1,39.1,72.5,102.7-15.8,64.9C-4.2,339.6,131.8,365.7,132.8,326.6z"/>
	</g>
	<g id="line35">
		<linearGradient id="SVGID_2_" gradientUnits="userSpaceOnUse" x1="81.8684" y1="373.4013" x2="81.8684" y2="211.7554">
			<stop  offset="0" style="stop-color:#B2D235"/>
			<stop  offset="0.752" style="stop-color:#00AEEF"/>
			<stop  offset="1" style="stop-color:#1B759A"/>
		</linearGradient>
		<path fill="none" stroke="url(#SVGID_2_)" d="M139.7,328.8c-1.1-41.2-144.3-128-110.5-115.3c119.6,44.8,15.6,38.9,16.7,80.2
			c1.1,41.2,80.2,103.9-12.8,69.1C-0.7,350.1,140.8,370,139.7,328.8z"/>
	</g>
	<g id="line34">
		<linearGradient id="SVGID_3_" gradientUnits="userSpaceOnUse" x1="84.218" y1="381.4258" x2="84.218" y2="214.0516">
			<stop  offset="0" style="stop-color:#B2D235"/>
			<stop  offset="0.752" style="stop-color:#00AEEF"/>
			<stop  offset="1" style="stop-color:#1B759A"/>
		</linearGradient>
		<path fill="none" stroke="url(#SVGID_3_)" d="M146.9,330.7c-3.3-43.3-155.5-126.6-120-115.1c125.5,40.5,18.2,40.1,21.5,83.3
			c3.3,43.3,88.2,104.8-9.5,73.3C3.5,360.8,150.2,374,146.9,330.7z"/>
	</g>
	<g id="line33">
		<linearGradient id="SVGID_4_" gradientUnits="userSpaceOnUse" x1="86.7774" y1="389.5346" x2="86.7774" y2="216.5948">
			<stop  offset="0" style="stop-color:#B2D235"/>
			<stop  offset="0.752" style="stop-color:#00AEEF"/>
			<stop  offset="1" style="stop-color:#1B759A"/>
		</linearGradient>
		<path fill="none" stroke="url(#SVGID_4_)" d="M154.3,332.4C148.6,287.1-12.6,207.9,24.6,218c131.4,35.7,20.9,41.1,26.7,86.4
			c5.8,45.3,96.4,105.4-5.8,77.6C8.3,371.9,160.1,377.6,154.3,332.4z"/>
	</g>
	<g id="line32">
		<linearGradient id="SVGID_5_" gradientUnits="userSpaceOnUse" x1="89.5557" y1="397.7292" x2="89.5557" y2="219.3915">
			<stop  offset="0" style="stop-color:#B2D235"/>
			<stop  offset="0.752" style="stop-color:#00AEEF"/>
			<stop  offset="1" style="stop-color:#1B759A"/>
		</linearGradient>
		<path fill="none" stroke="url(#SVGID_5_)" d="M162.1,333.7C153.7,286.4-16.4,212,22.4,220.6c137.2,30.3,23.7,42.1,32.1,89.4
			c8.4,47.3,105,105.4-1.8,81.9C14,383.3,170.5,381,162.1,333.7z"/>
	</g>
	<g id="line31">
		<linearGradient id="SVGID_6_" gradientUnits="userSpaceOnUse" x1="92.5593" y1="406.0248" x2="92.5593" y2="222.4457">
			<stop  offset="0" style="stop-color:#B2D235"/>
			<stop  offset="0.752" style="stop-color:#00AEEF"/>
			<stop  offset="1" style="stop-color:#1B759A"/>
		</linearGradient>
		<path fill="none" stroke="url(#SVGID_6_)" d="M170.2,334.6C159,285.4-20.2,216.6,20.3,223.4c142.9,24.3,26.7,42.9,37.9,92.2
			c11.2,49.2,113.8,105,2.6,86.2C20.4,394.9,181.4,383.9,170.2,334.6z"/>
	</g>
	<g id="line30">
		<linearGradient id="SVGID_7_" gradientUnits="userSpaceOnUse" x1="95.7952" y1="414.4719" x2="95.7952" y2="225.7563">
			<stop  offset="0" style="stop-color:#B2D235"/>
			<stop  offset="0.752" style="stop-color:#00AEEF"/>
			<stop  offset="1" style="stop-color:#1B759A"/>
		</linearGradient>
		<path fill="none" stroke="url(#SVGID_7_)" d="M178.6,335.2C164.4,284-23.8,221.5,18.2,226.5c148.4,17.6,29.8,43.6,44,94.8
			c14.2,51.2,122.8,104.2,7.3,90.4C27.6,406.8,192.8,386.3,178.6,335.2z"/>
	</g>
	<g id="line29">
		<linearGradient id="SVGID_8_" gradientUnits="userSpaceOnUse" x1="99.2707" y1="423.1801" x2="99.2707" y2="229.3123">
			<stop  offset="0" style="stop-color:#B2D235"/>
			<stop  offset="0.752" style="stop-color:#00AEEF"/>
			<stop  offset="1" style="stop-color:#1B759A"/>
		</linearGradient>
		<path fill="none" stroke="url(#SVGID_8_)" d="M187.2,335.3C169.9,282.3-27.2,227,16.3,229.9c153.8,10.4,33.1,44.2,50.4,97.2
			c17.4,53,132,102.7,12.4,94.7C35.6,418.9,204.6,388.3,187.2,335.3z"/>
	</g>
	<g id="line28">
		<linearGradient id="SVGID_9_" gradientUnits="userSpaceOnUse" x1="102.9928" y1="432.4026" x2="102.9928" y2="233.0835">
			<stop  offset="0" style="stop-color:#B2D235"/>
			<stop  offset="0.752" style="stop-color:#00AEEF"/>
			<stop  offset="1" style="stop-color:#1B759A"/>
		</linearGradient>
		<path fill="none" stroke="url(#SVGID_9_)" d="M196.2,334.9c-20.7-54.7-226.6-102-181.7-101.3c158.9,2.4,36.4,44.7,57.1,99.4
			c20.7,54.7,141.5,100.7,17.9,98.8C44.6,431.2,216.9,389.7,196.2,334.9z"/>
	</g>
	<g id="line27">
		<linearGradient id="SVGID_10_" gradientUnits="userSpaceOnUse" x1="106.9682" y1="442.3573" x2="106.9682" y2="236.5329">
			<stop  offset="0" style="stop-color:#B2D235"/>
			<stop  offset="0.752" style="stop-color:#00AEEF"/>
			<stop  offset="1" style="stop-color:#1B759A"/>
		</linearGradient>
		<path fill="none" stroke="url(#SVGID_10_)" d="M205.3,334C181,277.6-33.5,239.3,12.8,237.5c163.7-6.2,39.9,45,64.2,101.4
			c24.3,56.4,151.1,98.1,23.8,102.9C54.5,443.6,229.6,390.5,205.3,334z"/>
	</g>
	<g id="line26">
		<linearGradient id="SVGID_11_" gradientUnits="userSpaceOnUse" x1="111.2037" y1="452.3844" x2="111.2037" y2="238.8231">
			<stop  offset="0" style="stop-color:#B2D235"/>
			<stop  offset="0.752" style="stop-color:#00AEEF"/>
			<stop  offset="1" style="stop-color:#1B759A"/>
		</linearGradient>
		<path fill="none" stroke="url(#SVGID_11_)" d="M214.7,332.6c-28-58-251-86.4-203.4-90.8c168.2-15.5,43.5,45.1,71.6,103
			c28,58,160.8,94.8,30,106.9C65.3,456.1,242.8,390.6,214.7,332.6z"/>
	</g>
	<g id="line25">
		<linearGradient id="SVGID_12_" gradientUnits="userSpaceOnUse" x1="115.7062" y1="462.3374" x2="115.7062" y2="240.4446">
			<stop  offset="0" style="stop-color:#B2D235"/>
			<stop  offset="0.752" style="stop-color:#00AEEF"/>
			<stop  offset="1" style="stop-color:#1B759A"/>
		</linearGradient>
		<path fill="none" stroke="url(#SVGID_12_)" d="M224.3,330.6c-32-59.4-263-77-214.3-84.3c172.3-25.6,47.2,45,79.2,104.4
			c32,59.4,170.7,90.8,36.7,110.7C77.1,468.6,256.3,390,224.3,330.6z"/>
	</g>
	<g id="line24">
		<linearGradient id="SVGID_13_" gradientUnits="userSpaceOnUse" x1="120.4828" y1="472.14" x2="120.4828" y2="241.637">
			<stop  offset="0" style="stop-color:#B2D235"/>
			<stop  offset="0.752" style="stop-color:#00AEEF"/>
			<stop  offset="1" style="stop-color:#1B759A"/>
		</linearGradient>
		<path fill="none" stroke="url(#SVGID_13_)" d="M234.1,328c-36.1-60.7-275-66.5-225.2-76.8c176-36.4,51,44.7,87.2,105.3
			c36.1,60.7,180.6,86,43.7,114.3C90,481.2,270.2,388.6,234.1,328z"/>
	</g>
	<g id="line23">
		<linearGradient id="SVGID_14_" gradientUnits="userSpaceOnUse" x1="125.5397" y1="481.7194" x2="125.5397" y2="242.517">
			<stop  offset="0" style="stop-color:#B2D235"/>
			<stop  offset="0.752" style="stop-color:#00AEEF"/>
			<stop  offset="1" style="stop-color:#1B759A"/>
		</linearGradient>
		<path fill="none" stroke="url(#SVGID_14_)" d="M244,324.7c-40.5-61.8-286.7-54.7-236-68.3c179.2-48,55,44.2,95.4,105.9
			C143.9,424,294,442.7,154.6,480C103.9,493.6,284.5,386.4,244,324.7z"/>
	</g>
	<g id="line22">
		<linearGradient id="SVGID_15_" gradientUnits="userSpaceOnUse" x1="130.8853" y1="491.0045" x2="130.8853" y2="243.1466">
			<stop  offset="0" style="stop-color:#B2D235"/>
			<stop  offset="0.752" style="stop-color:#00AEEF"/>
			<stop  offset="1" style="stop-color:#1B759A"/>
		</linearGradient>
		<path fill="none" stroke="url(#SVGID_15_)" d="M254,320.6c-45-62.7-298.1-41.7-246.6-58.8c181.9-60.3,59,43.4,104,106.1
			c45,62.7,200.6,74.1,59.1,121C118.9,506,299,383.3,254,320.6z"/>
	</g>
	<g id="line21">
		<linearGradient id="SVGID_16_" gradientUnits="userSpaceOnUse" x1="136.5277" y1="499.9241" x2="136.5277" y2="243.5591">
			<stop  offset="0" style="stop-color:#B2D235"/>
			<stop  offset="0.752" style="stop-color:#00AEEF"/>
			<stop  offset="1" style="stop-color:#1B759A"/>
		</linearGradient>
		<path fill="none" stroke="url(#SVGID_16_)" d="M264.1,315.9C214.3,252.4-45.1,288.4,7,267.6c184.1-73.4,63,42.4,112.8,105.8
			c49.7,63.4,210.5,66.8,67.3,123.9C135,518.1,313.8,379.3,264.1,315.9z"/>
	</g>
	<g id="line20">
		<linearGradient id="SVGID_17_" gradientUnits="userSpaceOnUse" x1="142.4774" y1="508.4026" x2="142.4774" y2="243.7749">
			<stop  offset="0" style="stop-color:#B2D235"/>
			<stop  offset="0.752" style="stop-color:#00AEEF"/>
			<stop  offset="1" style="stop-color:#1B759A"/>
		</linearGradient>
		<path fill="none" stroke="url(#SVGID_17_)" d="M274.2,310.3C219.6,246.3-45.5,298.4,7,273.7c185.5-87.3,67.2,41.1,121.8,105
			c54.6,63.9,220.3,58.6,76,126.5C152.3,530,328.8,374.2,274.2,310.3z"/>
	</g>
	<g id="line19">
		<linearGradient id="SVGID_18_" gradientUnits="userSpaceOnUse" x1="148.7452" y1="516.3611" x2="148.7452" y2="243.802">
			<stop  offset="0" style="stop-color:#B2D235"/>
			<stop  offset="0.752" style="stop-color:#00AEEF"/>
			<stop  offset="1" style="stop-color:#1B759A"/>
		</linearGradient>
		<path fill="none" stroke="url(#SVGID_18_)" d="M284.3,303.9C224.7,239.7-45.5,309,7.2,280.2c186.3-102,71.4,39.5,131.1,103.6
			c59.7,64.2,230,49.5,85.1,128.8C170.7,541.5,344,368.1,284.3,303.9z"/>
	</g>
	<g id="line18">
		<linearGradient id="SVGID_19_" gradientUnits="userSpaceOnUse" x1="155.3462" y1="523.7178" x2="155.3462" y2="243.6435">
			<stop  offset="0" style="stop-color:#B2D235"/>
			<stop  offset="0.752" style="stop-color:#00AEEF"/>
			<stop  offset="1" style="stop-color:#1B759A"/>
		</linearGradient>
		<path fill="none" stroke="url(#SVGID_19_)" d="M294.4,296.5c-64.9-64.2-339.3,23.6-286.6-9.6c186.3-117.5,75.6,37.5,140.5,101.7
			c64.9,64.2,239.4,39.4,94.5,130.7C190.2,552.6,359.3,360.7,294.4,296.5z"/>
	</g>
	<g id="line17">
		<linearGradient id="SVGID_20_" gradientUnits="userSpaceOnUse" x1="162.2993" y1="530.3885" x2="162.2993" y2="243.3011">
			<stop  offset="0" style="stop-color:#B2D235"/>
			<stop  offset="0.752" style="stop-color:#00AEEF"/>
			<stop  offset="1" style="stop-color:#1B759A"/>
		</linearGradient>
		<path fill="none" stroke="url(#SVGID_20_)" d="M304.4,288.3c-70.3-63.9-348,43.5-295.5,5.7c185.4-133.8,79.9,35.3,150.2,99.2
			c70.3,63.9,248.6,28.2,104.4,132.2C210.9,563.2,374.7,352.2,304.4,288.3z"/>
	</g>
	<g id="line16">
		<linearGradient id="SVGID_21_" gradientUnits="userSpaceOnUse" x1="171.0017" y1="536.2822" x2="171.0017" y2="242.769">
			<stop  offset="0" style="stop-color:#B2D235"/>
			<stop  offset="0.752" style="stop-color:#00AEEF"/>
			<stop  offset="1" style="stop-color:#1B759A"/>
		</linearGradient>
		<path fill="none" stroke="url(#SVGID_21_)" d="M314.3,279.1c-75.8-63.3-355.9,64.9-304,22.2c183.7-150.8,84.1,32.7,159.9,96
			c75.8,63.3,257.5,15.9,114.6,133.2C232.9,573.2,390.1,342.4,314.3,279.1z"/>
	</g>
	<g id="line15">
		<linearGradient id="SVGID_22_" gradientUnits="userSpaceOnUse" x1="182.2724" y1="541.3058" x2="182.2724" y2="242.0443">
			<stop  offset="0" style="stop-color:#B2D235"/>
			<stop  offset="0.752" style="stop-color:#00AEEF"/>
			<stop  offset="1" style="stop-color:#1B759A"/>
		</linearGradient>
		<path fill="none" stroke="url(#SVGID_22_)" d="M323.9,268.8C242.4,206.5-39,356.7,12.2,309c181-168.7,88.4,29.7,169.8,92.1
			c81.5,62.4,265.9,2.6,125.2,133.8C256,582.5,405.4,331.2,323.9,268.8z"/>
	</g>
	<g id="line14">
		<linearGradient id="SVGID_23_" gradientUnits="userSpaceOnUse" x1="194.0747" y1="545.3617" x2="194.0747" y2="241.1196">
			<stop  offset="0" style="stop-color:#B2D235"/>
			<stop  offset="0.752" style="stop-color:#00AEEF"/>
			<stop  offset="1" style="stop-color:#1B759A"/>
		</linearGradient>
		<path fill="none" stroke="url(#SVGID_23_)" d="M333.3,257.6C246,196.5-35.6,369.9,14.5,316.9c177.2-187.3,92.6,26.4,179.8,87.5
			c87.2,61.1,273.9-11.9,136.1,133.7C280.3,591.1,420.5,318.6,333.3,257.6z"/>
	</g>
	<g id="line13">
		<linearGradient id="SVGID_24_" gradientUnits="userSpaceOnUse" x1="206.4056" y1="548.3489" x2="206.4056" y2="233.4122">
			<stop  offset="0" style="stop-color:#B2D235"/>
			<stop  offset="0.752" style="stop-color:#00AEEF"/>
			<stop  offset="1" style="stop-color:#1B759A"/>
		</linearGradient>
		<path fill="none" stroke="url(#SVGID_24_)" d="M342.3,245.2c-93.1-59.4-373.7,138.4-325,79.9c172.4-206.6,96.8,22.6,189.9,82
			c93.1,59.4,281.4-27.6,147.3,133.1C305.7,598.7,435.4,304.6,342.3,245.2z"/>
	</g>
	<g id="line12">
		<linearGradient id="SVGID_25_" gradientUnits="userSpaceOnUse" x1="219.2584" y1="550.1637" x2="219.2584" y2="221.6591">
			<stop  offset="0" style="stop-color:#B2D235"/>
			<stop  offset="0.752" style="stop-color:#00AEEF"/>
			<stop  offset="1" style="stop-color:#1B759A"/>
		</linearGradient>
		<path fill="none" stroke="url(#SVGID_25_)" d="M350.9,231.7C251.9,174.4-26.4,397.7,20.7,333.6c166.3-226.7,100.8,18.5,199.9,75.8
			c99.1,57.3,288.2-44.6,158.8,131.7C332.3,605.3,450,289,350.9,231.7z"/>
	</g>
	<g id="line11">
		<linearGradient id="SVGID_26_" gradientUnits="userSpaceOnUse" x1="232.6268" y1="550.6958" x2="232.6268" y2="208.5656">
			<stop  offset="0" style="stop-color:#B2D235"/>
			<stop  offset="0.752" style="stop-color:#00AEEF"/>
			<stop  offset="1" style="stop-color:#1B759A"/>
		</linearGradient>
		<path fill="none" stroke="url(#SVGID_26_)" d="M359.1,217C254,162.2-20.4,412.3,24.6,342.3c159-247.5,104.8,13.9,209.9,68.6
			c105.1,54.8,294.3-62.7,170.6,129.7C360.1,610.7,464.2,271.8,359.1,217z"/>
	</g>
	<g id="line10">
		<linearGradient id="SVGID_27_" gradientUnits="userSpaceOnUse" x1="246.5037" y1="549.8348" x2="246.5037" y2="194.1167">
			<stop  offset="0" style="stop-color:#B2D235"/>
			<stop  offset="0.752" style="stop-color:#00AEEF"/>
			<stop  offset="1" style="stop-color:#1B759A"/>
		</linearGradient>
		<path fill="none" stroke="url(#SVGID_27_)" d="M366.7,201.1C255.6,149.3-13.4,427.4,29.1,351.3c150.3-268.9,108.6,8.8,219.8,60.6
			c111.1,51.8,299.6-82.1,182.7,127C389,615,477.8,252.9,366.7,201.1z"/>
	</g>
	<g id="line9">
		<linearGradient id="SVGID_28_" gradientUnits="userSpaceOnUse" x1="260.8796" y1="547.4641" x2="260.8796" y2="178.2927">
			<stop  offset="0" style="stop-color:#B2D235"/>
			<stop  offset="0.752" style="stop-color:#00AEEF"/>
			<stop  offset="1" style="stop-color:#1B759A"/>
		</linearGradient>
		<path fill="none" stroke="url(#SVGID_28_)" d="M373.7,184C256.5,135.7-5.5,442.8,34.2,360.5c140.2-290.9,112.3,3.3,229.5,51.6
			c117.2,48.3,304-102.8,194.9,123.4C419,617.8,490.9,232.3,373.7,184z"/>
	</g>
	<g id="line8">
		<linearGradient id="SVGID_29_" gradientUnits="userSpaceOnUse" x1="275.7484" y1="543.468" x2="275.7484" y2="161.071">
			<stop  offset="0" style="stop-color:#B2D235"/>
			<stop  offset="0.752" style="stop-color:#00AEEF"/>
			<stop  offset="1" style="stop-color:#1B759A"/>
		</linearGradient>
		<path fill="none" stroke="url(#SVGID_29_)" d="M379.9,165.6C256.7,121.3,3.6,458.5,40,369.8c128.7-313.5,115.8-2.8,239.1,41.6
			c123.3,44.3,307.4-124.9,207.3,119C450,619.1,503.2,210,379.9,165.6z"/>
	</g>
	<g id="line7">
		<linearGradient id="SVGID_30_" gradientUnits="userSpaceOnUse" x1="291.1057" y1="537.7245" x2="291.1057" y2="142.4294">
			<stop  offset="0" style="stop-color:#B2D235"/>
			<stop  offset="0.752" style="stop-color:#00AEEF"/>
			<stop  offset="1" style="stop-color:#1B759A"/>
		</linearGradient>
		<path fill="none" stroke="url(#SVGID_30_)" d="M385.4,146c-129.3-39.8-371.7,328.7-339,233.4c115.6-336.7,119.1-9.3,248.4,30.5
			c129.3,39.8,309.7-148.2,219.9,113.7C481.9,618.8,514.7,185.8,385.4,146z"/>
	</g>
	<g id="line6">
		<linearGradient id="SVGID_31_" gradientUnits="userSpaceOnUse" x1="306.9542" y1="530.11" x2="306.9542" y2="122.3456">
			<stop  offset="0" style="stop-color:#B2D235"/>
			<stop  offset="0.752" style="stop-color:#00AEEF"/>
			<stop  offset="1" style="stop-color:#1B759A"/>
		</linearGradient>
		<path fill="none" stroke="url(#SVGID_31_)" d="M389.9,125C254.7,90.2,25,491,53.5,389c100.8-360.3,122.1-16.3,257.4,18.4
			c135.3,34.7,310.9-172.8,232.5,107.4C514.9,616.8,525.2,159.7,389.9,125z"/>
	</g>
	<g id="line5">
		<linearGradient id="SVGID_32_" gradientUnits="userSpaceOnUse" x1="323.309" y1="520.5005" x2="323.309" y2="100.7979">
			<stop  offset="0" style="stop-color:#B2D235"/>
			<stop  offset="0.752" style="stop-color:#00AEEF"/>
			<stop  offset="1" style="stop-color:#1B759A"/>
		</linearGradient>
		<path fill="none" stroke="url(#SVGID_32_)" d="M393.5,102.7C252.4,73.6,37.5,507.5,61.4,398.8c84.3-384.3,124.8-23.9,266,5.2
			C468.5,433,638.1,205.1,572.5,504C548.6,612.8,534.6,131.8,393.5,102.7z"/>
	</g>
	<g id="line4">
		<linearGradient id="SVGID_33_" gradientUnits="userSpaceOnUse" x1="340.2088" y1="508.7675" x2="340.2088" y2="77.7666">
			<stop  offset="0" style="stop-color:#B2D235"/>
			<stop  offset="0.752" style="stop-color:#00AEEF"/>
			<stop  offset="1" style="stop-color:#1B759A"/>
		</linearGradient>
		<path fill="none" stroke="url(#SVGID_33_)" d="M395.9,79.1C249.1,56.3,51.3,524.2,70,408.6c66.1-408.6,127.2-32,274.1-9.2
			c146.9,22.8,309.2-226.1,257.8,91.7C583.2,606.7,542.8,101.9,395.9,79.1z"/>
	</g>
	<g id="line3">
		<linearGradient id="SVGID_34_" gradientUnits="userSpaceOnUse" x1="357.7392" y1="494.7832" x2="357.7392" y2="53.2358">
			<stop  offset="0" style="stop-color:#B2D235"/>
			<stop  offset="0.752" style="stop-color:#00AEEF"/>
			<stop  offset="1" style="stop-color:#1B759A"/>
		</linearGradient>
		<path fill="none" stroke="url(#SVGID_34_)" d="M397.2,54.1C244.8,38.2,66.4,541,79.5,418.4c46-433.2,129.2-40.6,281.7-24.8
			c152.4,15.9,306.1-254.7,270.3,82.2C618.4,598.4,549.6,70,397.2,54.1z"/>
	</g>
	<g id="line2">
		<linearGradient id="SVGID_35_" gradientUnits="userSpaceOnUse" x1="376.0857" y1="478.4194" x2="376.0857" y2="27.192">
			<stop  offset="0" style="stop-color:#B2D235"/>
			<stop  offset="0.752" style="stop-color:#00AEEF"/>
			<stop  offset="1" style="stop-color:#1B759A"/>
		</linearGradient>
		<path fill="none" stroke="url(#SVGID_35_)" d="M397.1,27.8C239.4,19.5,82.9,557.8,89.7,428.3c24-457.9,130.9-49.8,288.7-41.6
			c157.8,8.3,301.4-284.6,282.7,71.5C654.3,587.8,554.9,36.1,397.1,27.8z"/>
	</g>
	<g id="line1">
		<linearGradient id="SVGID_36_" gradientUnits="userSpaceOnUse" x1="395.6692" y1="459.548" x2="395.6692" y2="-0.375">
			<stop  offset="0" style="stop-color:#B2D235"/>
			<stop  offset="0.752" style="stop-color:#00AEEF"/>
			<stop  offset="1" style="stop-color:#1B759A"/>
		</linearGradient>
		<path fill="none" stroke="url(#SVGID_36_)" d="M395.7,0.1c-162.9,0-294.9,574.5-294.9,437.9c0-482.6,132-59.6,294.9-59.6
			c162.9,0,294.9-315.8,294.9,59.6C690.6,574.6,558.6,0.1,395.7,0.1z"/>
	</g>
</g>
</svg>
